G04*
G04 #@! TF.GenerationSoftware,Altium Limited,Altium Designer,20.0.10 (225)*
G04*
G04 Layer_Color=16711935*
%FSLAX44Y44*%
%MOMM*%
G71*
G01*
G75*
%ADD14R,1.0000X1.0000*%
%ADD15R,1.0000X1.0000*%
%ADD19R,1.1500X1.4000*%
%ADD20R,0.7500X1.2500*%
%ADD36C,1.6500*%
%ADD37R,1.6500X1.6500*%
%ADD38C,6.1500*%
%ADD39C,1.9500*%
%ADD40R,1.6500X1.6500*%
%ADD82R,2.1820X0.7596*%
%ADD83O,2.1820X0.7596*%
%ADD84R,1.2500X1.9500*%
D14*
X609010Y29990D02*
D03*
Y43990D02*
D03*
X589010Y351990D02*
D03*
Y337990D02*
D03*
X610010Y124990D02*
D03*
Y110990D02*
D03*
X411000Y293000D02*
D03*
Y307000D02*
D03*
X227010Y193990D02*
D03*
Y207990D02*
D03*
D15*
X352010Y129990D02*
D03*
X338010D02*
D03*
X207262Y246990D02*
D03*
X193262D02*
D03*
X207262Y231990D02*
D03*
X193262D02*
D03*
X290010Y159990D02*
D03*
X276010D02*
D03*
X290010Y144990D02*
D03*
X276010D02*
D03*
X175010Y171989D02*
D03*
X189010D02*
D03*
X175010Y156990D02*
D03*
X189010D02*
D03*
X255010Y284989D02*
D03*
X269010D02*
D03*
X255010Y316989D02*
D03*
X269010D02*
D03*
D19*
X307000Y177000D02*
D03*
X287000D02*
D03*
D20*
X193007Y218002D02*
D03*
X212007D02*
D03*
X202507Y194002D02*
D03*
D36*
X500010Y188390D02*
D03*
Y162990D02*
D03*
Y213790D02*
D03*
Y239190D02*
D03*
Y264590D02*
D03*
Y289990D02*
D03*
X149010Y311990D02*
D03*
X255410Y267990D02*
D03*
X280810D02*
D03*
X306210D02*
D03*
X255408Y301002D02*
D03*
X280807D02*
D03*
X306208D02*
D03*
X255010Y333989D02*
D03*
X280410D02*
D03*
X305810D02*
D03*
X616010Y226590D02*
D03*
X655010Y127990D02*
D03*
X680410D02*
D03*
X705810D02*
D03*
X655210Y28990D02*
D03*
X680610D02*
D03*
X706010D02*
D03*
X655407Y61997D02*
D03*
X680807D02*
D03*
X706208D02*
D03*
X655610Y94990D02*
D03*
X681010D02*
D03*
X706410D02*
D03*
X402410Y234989D02*
D03*
X377010D02*
D03*
X351610D02*
D03*
X427810Y170990D02*
D03*
X402410D02*
D03*
X449010Y94990D02*
D03*
X474410D02*
D03*
X423610D02*
D03*
X398210D02*
D03*
X372810D02*
D03*
X347410D02*
D03*
X302613Y61976D02*
D03*
X277213D02*
D03*
X251813D02*
D03*
X302613Y28977D02*
D03*
X277213D02*
D03*
X251813D02*
D03*
X347610Y333990D02*
D03*
X373010D02*
D03*
X398410D02*
D03*
X423810D02*
D03*
X474610D02*
D03*
X449210D02*
D03*
D37*
X500010Y137590D02*
D03*
X253010Y95990D02*
D03*
X616010Y251990D02*
D03*
D38*
X40000Y40000D02*
D03*
Y330000D02*
D03*
D39*
X127010Y268990D02*
D03*
Y228990D02*
D03*
D40*
X174410Y311990D02*
D03*
X230010Y267990D02*
D03*
X230007Y301002D02*
D03*
X229610Y333989D02*
D03*
X629610Y127990D02*
D03*
X629810Y28990D02*
D03*
X630008Y61997D02*
D03*
X630210Y94990D02*
D03*
X427810Y234989D02*
D03*
X377010Y170990D02*
D03*
X499810Y94990D02*
D03*
X328013Y61976D02*
D03*
Y28977D02*
D03*
X500010Y333990D02*
D03*
D82*
X389510Y305989D02*
D03*
D83*
Y293290D02*
D03*
Y280590D02*
D03*
Y267889D02*
D03*
X333630D02*
D03*
Y280590D02*
D03*
Y293290D02*
D03*
Y305989D02*
D03*
D84*
X115510Y109990D02*
D03*
Y47990D02*
D03*
X152510Y109990D02*
D03*
Y47990D02*
D03*
X173510Y109990D02*
D03*
Y47990D02*
D03*
X210510Y109990D02*
D03*
Y47990D02*
D03*
M02*
