G04*
G04 #@! TF.GenerationSoftware,Altium Limited,Altium Designer,20.0.10 (225)*
G04*
G04 Layer_Physical_Order=2*
G04 Layer_Color=11367680*
%FSLAX44Y44*%
%MOMM*%
G71*
G01*
G75*
%ADD41R,0.8500X0.8500*%
%ADD42R,0.8500X0.8500*%
%ADD46R,1.0000X1.2500*%
%ADD47R,0.6000X1.1000*%
%ADD63C,0.3000*%
%ADD64C,0.6300*%
%ADD65C,0.8000*%
%ADD66C,0.7000*%
%ADD67C,0.6000*%
%ADD68C,0.4000*%
%ADD69C,1.2000*%
%ADD70C,0.5000*%
%ADD71C,1.0000*%
%ADD73C,1.5000*%
%ADD74R,1.5000X1.5000*%
%ADD75C,6.0000*%
%ADD76C,1.8000*%
%ADD77R,1.5000X1.5000*%
%ADD78C,0.7000*%
%ADD79R,2.0320X0.6096*%
%ADD80O,2.0320X0.6096*%
%ADD81R,1.1000X1.8000*%
G36*
X715000Y365812D02*
X717224Y365369D01*
X719109Y364109D01*
X720369Y362224D01*
X720812Y360000D01*
X720922D01*
X720922Y11000D01*
X720812D01*
X720369Y8776D01*
X719109Y6891D01*
X717224Y5631D01*
X715000Y5188D01*
Y5078D01*
X715000Y5078D01*
X49764Y5078D01*
X49167Y8078D01*
X56642Y11175D01*
X63536Y16464D01*
X68825Y23358D01*
X72151Y31385D01*
X72956Y37500D01*
X40000D01*
Y40000D01*
X37500D01*
Y72956D01*
X31385Y72151D01*
X23358Y68825D01*
X16464Y63536D01*
X11175Y56642D01*
X7849Y48615D01*
X7078Y42758D01*
X4078Y42955D01*
Y327045D01*
X7078Y327242D01*
X7849Y321385D01*
X11175Y313358D01*
X16464Y306464D01*
X23358Y301175D01*
X31385Y297849D01*
X37500Y297044D01*
Y330000D01*
X40000D01*
Y332500D01*
X72956D01*
X72151Y338615D01*
X68825Y346642D01*
X63536Y353536D01*
X56642Y358825D01*
X48615Y362151D01*
X42758Y362922D01*
X42955Y365922D01*
X715000Y365922D01*
Y365812D01*
D02*
G37*
%LPC*%
G36*
X311817Y355627D02*
X269510D01*
X266779Y355083D01*
X264464Y353536D01*
X255521Y344594D01*
X255010Y344695D01*
X250914Y343880D01*
X247440Y341560D01*
X245120Y338086D01*
X244305Y333989D01*
X245120Y329893D01*
X247081Y326958D01*
X247327Y325970D01*
X245377Y323107D01*
X242952D01*
X240110Y323490D01*
X240110Y326107D01*
Y331489D01*
X219110D01*
Y326107D01*
X219110Y323490D01*
X216269Y323107D01*
X204555D01*
X204547Y323112D01*
X202010Y323617D01*
X199474Y323112D01*
X197324Y321676D01*
X195888Y319526D01*
X195383Y316989D01*
X195888Y314453D01*
X197324Y312303D01*
X199474Y310867D01*
X202010Y310362D01*
X204547Y310867D01*
X204554Y310872D01*
X219508D01*
Y303502D01*
X240508D01*
Y310872D01*
X246041D01*
X246505Y310278D01*
X247243Y308225D01*
X246862Y307112D01*
X245517Y305099D01*
X244702Y301002D01*
X245517Y296905D01*
X246875Y294873D01*
X247760Y292239D01*
X247760Y292239D01*
X247760D01*
X247760Y292239D01*
Y286771D01*
X245327Y285599D01*
X244760Y285483D01*
X243409Y286386D01*
X241653Y286735D01*
X213452D01*
X211696Y286386D01*
X210207Y285391D01*
X204394Y279578D01*
X181762D01*
X181697Y279676D01*
X179547Y281112D01*
X177010Y281617D01*
X174474Y281112D01*
X172324Y279676D01*
X170888Y277526D01*
X170383Y274990D01*
X170888Y272453D01*
X172324Y270303D01*
X174474Y268867D01*
X177010Y268362D01*
X179547Y268867D01*
X181697Y270303D01*
X181762Y270401D01*
X187139D01*
X189465Y267401D01*
X189383Y266990D01*
X189888Y264453D01*
X189965Y264338D01*
X188361Y261338D01*
X183260D01*
X181309Y260949D01*
X179656Y259844D01*
X155283Y235472D01*
X153474Y235112D01*
X151324Y233676D01*
X149888Y231526D01*
X149383Y228990D01*
X149888Y226453D01*
X151324Y224303D01*
X153474Y222867D01*
X156010Y222362D01*
X158546Y222867D01*
X160697Y224303D01*
X162133Y226453D01*
X162493Y228263D01*
X183011Y248781D01*
X186012Y247538D01*
Y239740D01*
X186011D01*
X186011Y239240D01*
X186012D01*
Y224740D01*
X186890D01*
Y218002D01*
X187007Y217411D01*
Y209502D01*
X199007D01*
Y217411D01*
X199125Y218002D01*
Y224740D01*
X206007D01*
Y220502D01*
X212007D01*
Y218002D01*
X214507D01*
Y209502D01*
X218007D01*
X219760Y207228D01*
Y200113D01*
X208507D01*
Y202502D01*
X196507D01*
Y194593D01*
X196390Y194002D01*
Y193996D01*
X196507Y193405D01*
Y185502D01*
X208507D01*
Y187878D01*
X219760D01*
Y186740D01*
X234260D01*
Y194981D01*
X236869Y196659D01*
X237260Y196701D01*
X238768Y196401D01*
X247691D01*
X248934Y193401D01*
X232110Y176578D01*
X196260D01*
Y179240D01*
X177510D01*
Y171990D01*
X175010D01*
Y169490D01*
X167760D01*
Y167240D01*
X167760Y164739D01*
X167760Y161740D01*
Y159489D01*
X175010D01*
Y154490D01*
X167760D01*
Y153578D01*
X122965D01*
X121817Y156349D01*
X132057Y166590D01*
X133604Y168905D01*
X134148Y171637D01*
Y219326D01*
X135662Y220338D01*
X138314Y224307D01*
X139245Y228990D01*
X138314Y233672D01*
X135662Y237641D01*
X131692Y240293D01*
X127010Y241225D01*
X122328Y240293D01*
X118359Y237641D01*
X115707Y233672D01*
X114775Y228990D01*
X115707Y224307D01*
X118359Y220338D01*
X119873Y219326D01*
Y174593D01*
X92964Y147683D01*
X91417Y145368D01*
X90873Y142636D01*
Y87990D01*
Y33990D01*
X91417Y31258D01*
X92964Y28943D01*
X97953Y23953D01*
X100269Y22406D01*
X103000Y21863D01*
X167000D01*
X169731Y22406D01*
X172047Y23953D01*
X178047Y29953D01*
X179594Y32269D01*
X180137Y35000D01*
Y35990D01*
X182010D01*
Y59990D01*
X179628D01*
Y97990D01*
X182010D01*
Y121989D01*
X165010D01*
Y97990D01*
X167393D01*
Y59990D01*
X165010D01*
Y37104D01*
X164044Y36137D01*
X161010D01*
Y59990D01*
X158628D01*
Y97990D01*
X161010D01*
Y121989D01*
X144010D01*
Y97990D01*
X146393D01*
Y59990D01*
X144010D01*
Y36137D01*
X124010D01*
Y59990D01*
X121628D01*
Y97990D01*
X124010D01*
Y121989D01*
X120598D01*
Y144401D01*
X194460D01*
X196216Y144751D01*
X197705Y145745D01*
X209361Y157401D01*
X240926D01*
X242474Y156367D01*
X245010Y155862D01*
X247547Y156367D01*
X249697Y157803D01*
X251133Y159953D01*
X251638Y162489D01*
X251133Y165026D01*
X249697Y167176D01*
X247547Y168612D01*
X245010Y169117D01*
X242474Y168612D01*
X241852Y168197D01*
X241131Y168379D01*
X240213Y171704D01*
X255911Y187401D01*
X268267D01*
X268350Y187278D01*
X270500Y185841D01*
X273036Y185336D01*
X275572Y185841D01*
X276000Y186127D01*
X279000Y184523D01*
X279000Y184014D01*
X279000D01*
X279000Y183931D01*
Y172328D01*
X270311D01*
X268555Y171978D01*
X267066Y170984D01*
X263069Y166987D01*
X262075Y165499D01*
X261726Y163743D01*
Y128527D01*
X261010Y125617D01*
X258474Y125112D01*
X256324Y123676D01*
X256272Y123597D01*
X253286Y123303D01*
X249599Y126990D01*
Y140238D01*
X249697Y140303D01*
X251133Y142453D01*
X251638Y144990D01*
X251133Y147526D01*
X249697Y149676D01*
X247547Y151112D01*
X245010Y151617D01*
X242474Y151112D01*
X240324Y149676D01*
X238888Y147526D01*
X238383Y144990D01*
X238888Y142453D01*
X240324Y140303D01*
X240422Y140238D01*
Y125090D01*
X240772Y123334D01*
X241766Y121846D01*
X254351Y109261D01*
X253202Y106489D01*
X242510D01*
Y85490D01*
X263510D01*
Y96445D01*
X266282Y97593D01*
X272130Y91745D01*
X273618Y90751D01*
X275374Y90401D01*
X337848D01*
X338000Y90174D01*
Y86000D01*
X339510Y84490D01*
X346376D01*
X347410Y84284D01*
X348445Y84490D01*
X371776D01*
X372810Y84284D01*
X373844Y84490D01*
X397176D01*
X398210Y84284D01*
X399244Y84490D01*
X422576D01*
X423610Y84284D01*
X424645Y84490D01*
X447976D01*
X449010Y84284D01*
X450045Y84490D01*
X473376D01*
X474410Y84284D01*
X475444Y84490D01*
X510310D01*
Y105490D01*
X495799D01*
X445055Y156234D01*
X443566Y157228D01*
X441810Y157578D01*
X430068D01*
X429318Y160267D01*
X429314Y160300D01*
X431907Y161099D01*
X431967Y161139D01*
X435380Y163420D01*
X437701Y166893D01*
X438019Y168490D01*
X427810D01*
Y173490D01*
X438019D01*
X437701Y175087D01*
X437254Y175756D01*
X438668Y178401D01*
X443810D01*
X445566Y178751D01*
X447055Y179745D01*
X489161Y221851D01*
X491491Y219939D01*
X490120Y217887D01*
X489305Y213790D01*
X490120Y209693D01*
X492440Y206220D01*
X495914Y203899D01*
X500010Y203084D01*
X504107Y203899D01*
X507580Y206220D01*
X509901Y209693D01*
X510716Y213790D01*
X509901Y217887D01*
X507580Y221360D01*
X504107Y223680D01*
X500010Y224495D01*
X495914Y223680D01*
X493861Y222309D01*
X491949Y224639D01*
X496493Y229184D01*
X500010Y228484D01*
X504107Y229299D01*
X507580Y231620D01*
X509901Y235093D01*
X510716Y239190D01*
X509901Y243286D01*
X507580Y246760D01*
X504107Y249080D01*
X500010Y249895D01*
X495914Y249080D01*
X492440Y246760D01*
X490120Y243286D01*
X489305Y239190D01*
X490004Y235672D01*
X441910Y187578D01*
X409624D01*
X406998Y189757D01*
Y225427D01*
X409980Y227419D01*
X412301Y230893D01*
X413116Y234989D01*
X412301Y239086D01*
X409980Y242560D01*
X406507Y244880D01*
X402410Y245695D01*
X398313Y244880D01*
X394840Y242560D01*
X392520Y239086D01*
X391705Y234989D01*
X392520Y230893D01*
X394840Y227419D01*
X397822Y225427D01*
Y192588D01*
X343950D01*
X342194Y192239D01*
X340705Y191244D01*
X340049Y190588D01*
X332752D01*
X332686Y190686D01*
X330536Y192123D01*
X328000Y192627D01*
X325117Y195113D01*
Y215311D01*
X327889Y216459D01*
X335886Y208463D01*
X335887Y208453D01*
X337324Y206303D01*
X339474Y204867D01*
X342010Y204362D01*
X344547Y204867D01*
X346697Y206303D01*
X348133Y208453D01*
X348638Y210989D01*
X348133Y213526D01*
X346697Y215676D01*
X344547Y217112D01*
X344537Y217114D01*
X323326Y238326D01*
X308336Y253315D01*
X306799Y254342D01*
X306765Y256169D01*
X307116Y257464D01*
X310307Y258099D01*
X313780Y260419D01*
X314718Y261822D01*
X326021D01*
X326518Y261723D01*
X340742D01*
X343102Y262192D01*
X345103Y263529D01*
X346440Y265530D01*
X346909Y267889D01*
X346440Y270249D01*
X345103Y272250D01*
X344825Y272435D01*
Y276044D01*
X345103Y276229D01*
X346440Y278230D01*
X346909Y280590D01*
X346440Y282949D01*
X345103Y284950D01*
X344825Y285135D01*
Y288744D01*
X345103Y288929D01*
X346346Y290790D01*
X333630D01*
X320915D01*
X321638Y289707D01*
X320652Y287118D01*
X320309Y286707D01*
X316087D01*
X315437Y287141D01*
X313096Y287607D01*
X308067D01*
X307771Y290607D01*
X310304Y291111D01*
X313778Y293432D01*
X316098Y296905D01*
X316913Y301002D01*
X316098Y305099D01*
X313778Y308572D01*
X310304Y310892D01*
X306208Y311707D01*
X302111Y310892D01*
X298638Y308572D01*
X296317Y305099D01*
X295502Y301002D01*
X295574Y300640D01*
X294267Y299467D01*
X291513Y301002D01*
X290698Y305099D01*
X288378Y308572D01*
X284904Y310892D01*
X280807Y311707D01*
X280501Y311646D01*
X277822Y313772D01*
X277711Y316318D01*
X283566Y322173D01*
X285003Y324323D01*
X285027Y324446D01*
X287980Y326419D01*
X290301Y329893D01*
X291116Y333989D01*
X290301Y338086D01*
X289887Y338707D01*
X291301Y341352D01*
X294920D01*
X296334Y338707D01*
X295920Y338086D01*
X295105Y333989D01*
X295920Y329893D01*
X298240Y326419D01*
X301714Y324099D01*
X305810Y323284D01*
X309907Y324099D01*
X313381Y326419D01*
X315701Y329893D01*
X315847Y330624D01*
X318717Y331495D01*
X326493Y323719D01*
Y312151D01*
X324159Y311687D01*
X322158Y310350D01*
X320821Y308349D01*
X320352Y305989D01*
X320821Y303630D01*
X322158Y301629D01*
X322436Y301444D01*
Y297836D01*
X322158Y297650D01*
X320915Y295790D01*
X333630D01*
X346346D01*
X345103Y297650D01*
X344825Y297836D01*
Y301444D01*
X345103Y301629D01*
X346440Y303630D01*
X346909Y305989D01*
X346440Y308349D01*
X345103Y310350D01*
X343102Y311687D01*
X340768Y312151D01*
Y322752D01*
X343032Y323962D01*
X343768Y324048D01*
X347610Y323284D01*
X351707Y324099D01*
X355180Y326419D01*
X357501Y329893D01*
X358316Y333990D01*
X357501Y338086D01*
X355180Y341560D01*
X351707Y343880D01*
X347610Y344695D01*
X343513Y343880D01*
X340040Y341560D01*
X337720Y338086D01*
X337527Y337116D01*
X334271Y336128D01*
X316863Y353536D01*
X314548Y355083D01*
X311817Y355627D01*
D02*
G37*
G36*
X240110Y344490D02*
X232110D01*
Y336489D01*
X240110D01*
Y344490D01*
D02*
G37*
G36*
X227110D02*
X219110D01*
Y336489D01*
X227110D01*
Y344490D01*
D02*
G37*
G36*
X423810Y344695D02*
X419714Y343880D01*
X416240Y341560D01*
X413920Y338086D01*
X413105Y333990D01*
X410351Y332455D01*
X409044Y333628D01*
X409116Y333990D01*
X408301Y338086D01*
X405980Y341560D01*
X402507Y343880D01*
X398410Y344695D01*
X394314Y343880D01*
X390840Y341560D01*
X388520Y338086D01*
X387705Y333990D01*
X388520Y329893D01*
X390840Y326419D01*
X394314Y324099D01*
X398410Y323284D01*
X399522Y323505D01*
X404373Y318655D01*
Y317225D01*
X403750Y314250D01*
X401849Y312038D01*
X400750Y312038D01*
X392010D01*
Y305990D01*
X389510D01*
Y303490D01*
X376350D01*
Y300113D01*
X376350Y299942D01*
X376603Y299598D01*
X377565Y296942D01*
X376795Y295790D01*
X389510D01*
Y290790D01*
X376795D01*
X378038Y288929D01*
X378316Y288744D01*
Y285135D01*
X378038Y284950D01*
X376795Y283090D01*
X389510D01*
X402366D01*
X402806Y284407D01*
X404056Y285750D01*
X406659Y285750D01*
X408500D01*
Y293000D01*
X411000D01*
Y295500D01*
X418250D01*
Y299750D01*
Y314250D01*
X417627D01*
Y321400D01*
X417516Y321959D01*
X418581Y322995D01*
X420167Y324008D01*
X423810Y323284D01*
X427907Y324099D01*
X431380Y326419D01*
X433701Y329893D01*
X434516Y333990D01*
X433701Y338086D01*
X431380Y341560D01*
X427907Y343880D01*
X423810Y344695D01*
D02*
G37*
G36*
X596260Y359240D02*
X581760D01*
Y344740D01*
Y330740D01*
X583403D01*
Y327597D01*
X578317D01*
X577547Y328112D01*
X575010Y328617D01*
X572474Y328112D01*
X570324Y326676D01*
X568887Y324526D01*
X568383Y321990D01*
X568887Y319453D01*
X570324Y317303D01*
X572474Y315867D01*
X575010Y315362D01*
X577547Y315867D01*
X578317Y316382D01*
X586081D01*
X588227Y316809D01*
X590047Y318024D01*
X592976Y320953D01*
X594191Y322772D01*
X594618Y324919D01*
Y330740D01*
X596260D01*
Y344740D01*
Y359240D01*
D02*
G37*
G36*
X474610Y344695D02*
X470513Y343880D01*
X467040Y341560D01*
X464720Y338086D01*
X463905Y333990D01*
X464720Y329893D01*
X467040Y326419D01*
X470513Y324099D01*
X474610Y323284D01*
X478707Y324099D01*
X482180Y326419D01*
X484501Y329893D01*
X485316Y333990D01*
X484501Y338086D01*
X482180Y341560D01*
X478707Y343880D01*
X474610Y344695D01*
D02*
G37*
G36*
X449210D02*
X445113Y343880D01*
X441640Y341560D01*
X439320Y338086D01*
X438505Y333990D01*
X439320Y329893D01*
X441640Y326419D01*
X445113Y324099D01*
X449210Y323284D01*
X453307Y324099D01*
X456780Y326419D01*
X459101Y329893D01*
X459916Y333990D01*
X459101Y338086D01*
X456780Y341560D01*
X453307Y343880D01*
X449210Y344695D01*
D02*
G37*
G36*
X373010D02*
X368913Y343880D01*
X365440Y341560D01*
X363120Y338086D01*
X362305Y333990D01*
X363120Y329893D01*
X365440Y326419D01*
X368913Y324099D01*
X373010Y323284D01*
X377107Y324099D01*
X380580Y326419D01*
X382901Y329893D01*
X383716Y333990D01*
X382901Y338086D01*
X380580Y341560D01*
X377107Y343880D01*
X373010Y344695D01*
D02*
G37*
G36*
X151510Y322198D02*
Y314490D01*
X159219D01*
X158901Y316087D01*
X156580Y319560D01*
X153107Y321880D01*
X151510Y322198D01*
D02*
G37*
G36*
X146510D02*
X144914Y321880D01*
X141440Y319560D01*
X139120Y316087D01*
X138802Y314490D01*
X146510D01*
Y322198D01*
D02*
G37*
G36*
X640010Y350117D02*
X637474Y349612D01*
X635324Y348176D01*
X633887Y346026D01*
X633434Y343748D01*
X612815Y323129D01*
X611474Y322862D01*
X609324Y321426D01*
X607887Y319276D01*
X607383Y316740D01*
X607887Y314203D01*
X609324Y312053D01*
X611474Y310617D01*
X614010Y310112D01*
X616547Y310617D01*
X618697Y312053D01*
X620133Y314203D01*
X620586Y316481D01*
X641205Y337100D01*
X642546Y337367D01*
X644697Y338803D01*
X646133Y340953D01*
X646638Y343490D01*
X646133Y346026D01*
X644697Y348176D01*
X642546Y349612D01*
X640010Y350117D01*
D02*
G37*
G36*
X387010Y312038D02*
X376350D01*
Y308490D01*
X387010D01*
Y312038D01*
D02*
G37*
G36*
X510510Y344490D02*
X489510D01*
Y323490D01*
X502580D01*
X519045Y307024D01*
X520864Y305809D01*
X523010Y305382D01*
X546703D01*
X547474Y304867D01*
X550010Y304362D01*
X552547Y304867D01*
X554697Y306303D01*
X556133Y308453D01*
X556638Y310990D01*
X556133Y313526D01*
X554697Y315676D01*
X552547Y317112D01*
X550010Y317617D01*
X547474Y317112D01*
X546703Y316597D01*
X525333D01*
X510510Y331420D01*
Y344490D01*
D02*
G37*
G36*
X159219Y309490D02*
X151510D01*
Y301781D01*
X153107Y302099D01*
X156580Y304419D01*
X158901Y307893D01*
X159219Y309490D01*
D02*
G37*
G36*
X146510D02*
X138802D01*
X139120Y307893D01*
X141440Y304419D01*
X144914Y302099D01*
X146510Y301781D01*
Y309490D01*
D02*
G37*
G36*
X184910Y322490D02*
X163910D01*
Y301490D01*
X184910D01*
Y322490D01*
D02*
G37*
G36*
X72956Y327500D02*
X42500D01*
Y297044D01*
X48615Y297849D01*
X56642Y301175D01*
X63536Y306464D01*
X68825Y313358D01*
X72151Y321385D01*
X72956Y327500D01*
D02*
G37*
G36*
X240508Y298502D02*
X232507D01*
Y290502D01*
X240508D01*
Y298502D01*
D02*
G37*
G36*
X227507D02*
X219508D01*
Y290502D01*
X227507D01*
Y298502D01*
D02*
G37*
G36*
X418250Y290500D02*
X413500D01*
Y285750D01*
X418250D01*
Y290500D01*
D02*
G37*
G36*
X500010Y300695D02*
X495914Y299880D01*
X492440Y297560D01*
X490120Y294086D01*
X489305Y289990D01*
X490120Y285893D01*
X492440Y282420D01*
X495914Y280099D01*
X500010Y279284D01*
X504107Y280099D01*
X507580Y282420D01*
X509901Y285893D01*
X510716Y289990D01*
X509901Y294086D01*
X507580Y297560D01*
X504107Y299880D01*
X500010Y300695D01*
D02*
G37*
G36*
X402226Y278090D02*
X389510D01*
X376795D01*
X378038Y276229D01*
X378316Y276044D01*
Y272435D01*
X378038Y272250D01*
X376795Y270390D01*
X389510D01*
X402226D01*
X400983Y272250D01*
X400705Y272435D01*
Y276044D01*
X400983Y276229D01*
X402226Y278090D01*
D02*
G37*
G36*
Y265390D02*
X392010D01*
Y261723D01*
X396622D01*
X398982Y262192D01*
X400983Y263529D01*
X402226Y265390D01*
D02*
G37*
G36*
X387010D02*
X376795D01*
X378038Y263529D01*
X380039Y262192D01*
X382398Y261723D01*
X387010D01*
Y265390D01*
D02*
G37*
G36*
X127010Y281225D02*
X122328Y280293D01*
X118359Y277641D01*
X115707Y273672D01*
X114775Y268990D01*
X115707Y264307D01*
X118359Y260338D01*
X122328Y257686D01*
X127010Y256754D01*
X131692Y257686D01*
X135662Y260338D01*
X138314Y264307D01*
X139245Y268990D01*
X138314Y273672D01*
X135662Y277641D01*
X131692Y280293D01*
X127010Y281225D01*
D02*
G37*
G36*
X500010Y275295D02*
X495914Y274480D01*
X492440Y272160D01*
X490120Y268687D01*
X489305Y264590D01*
X490120Y260493D01*
X492440Y257020D01*
X495914Y254699D01*
X500010Y253884D01*
X504107Y254699D01*
X507580Y257020D01*
X509901Y260493D01*
X510716Y264590D01*
X509901Y268687D01*
X507580Y272160D01*
X504107Y274480D01*
X500010Y275295D01*
D02*
G37*
G36*
X626510Y262489D02*
X605510D01*
Y241490D01*
X626510D01*
Y262489D01*
D02*
G37*
G36*
X438310Y245490D02*
X430310D01*
Y237490D01*
X438310D01*
Y245490D01*
D02*
G37*
G36*
X425310D02*
X417310D01*
Y237490D01*
X425310D01*
Y245490D01*
D02*
G37*
G36*
X438310Y232490D02*
X430310D01*
Y224490D01*
X438310D01*
Y232490D01*
D02*
G37*
G36*
X425310D02*
X417310D01*
Y224490D01*
X425310D01*
Y232490D01*
D02*
G37*
G36*
X377010Y245695D02*
X372914Y244880D01*
X369440Y242560D01*
X367120Y239086D01*
X366305Y234989D01*
X367120Y230893D01*
X369440Y227419D01*
X372914Y225099D01*
X377010Y224284D01*
X381107Y225099D01*
X384580Y227419D01*
X386901Y230893D01*
X387716Y234989D01*
X386901Y239086D01*
X384580Y242560D01*
X381107Y244880D01*
X377010Y245695D01*
D02*
G37*
G36*
X351610D02*
X347514Y244880D01*
X344040Y242560D01*
X341720Y239086D01*
X340905Y234989D01*
X341720Y230893D01*
X344040Y227419D01*
X347514Y225099D01*
X351610Y224284D01*
X355707Y225099D01*
X359180Y227419D01*
X361501Y230893D01*
X362316Y234989D01*
X361501Y239086D01*
X359180Y242560D01*
X355707Y244880D01*
X351610Y245695D01*
D02*
G37*
G36*
X616010Y237295D02*
X611913Y236480D01*
X608440Y234160D01*
X606120Y230686D01*
X605305Y226590D01*
X605765Y224275D01*
X601087Y219597D01*
X576317D01*
X575546Y220112D01*
X573010Y220617D01*
X570474Y220112D01*
X568324Y218676D01*
X566888Y216526D01*
X566383Y213990D01*
X566888Y211453D01*
X568324Y209303D01*
X570474Y207867D01*
X573010Y207362D01*
X575546Y207867D01*
X576317Y208382D01*
X603410D01*
X605556Y208809D01*
X607376Y210024D01*
X613696Y216344D01*
X616010Y215884D01*
X620107Y216699D01*
X623580Y219020D01*
X625901Y222493D01*
X626716Y226590D01*
X625901Y230686D01*
X623580Y234160D01*
X620107Y236480D01*
X616010Y237295D01*
D02*
G37*
G36*
X209507Y215502D02*
X206007D01*
Y209502D01*
X209507D01*
Y215502D01*
D02*
G37*
G36*
X500010Y199095D02*
X495914Y198280D01*
X492440Y195960D01*
X490120Y192486D01*
X489305Y188390D01*
X490120Y184293D01*
X492440Y180820D01*
X495914Y178499D01*
X500010Y177684D01*
X504107Y178499D01*
X507580Y180820D01*
X509901Y184293D01*
X510716Y188390D01*
X509901Y192486D01*
X507580Y195960D01*
X504107Y198280D01*
X500010Y199095D01*
D02*
G37*
G36*
X172510Y179240D02*
X167760D01*
Y174490D01*
X172510D01*
Y179240D01*
D02*
G37*
G36*
X500010Y173695D02*
X495914Y172880D01*
X492440Y170560D01*
X490120Y167087D01*
X489305Y162990D01*
X490120Y158893D01*
X492440Y155420D01*
X495914Y153099D01*
X500010Y152284D01*
X504107Y153099D01*
X507580Y155420D01*
X509901Y158893D01*
X510716Y162990D01*
X509901Y167087D01*
X507580Y170560D01*
X504107Y172880D01*
X500010Y173695D01*
D02*
G37*
G36*
X682910Y138198D02*
Y130490D01*
X690619D01*
X690301Y132086D01*
X687980Y135560D01*
X684507Y137880D01*
X682910Y138198D01*
D02*
G37*
G36*
X677910D02*
X676313Y137880D01*
X672840Y135560D01*
X670520Y132086D01*
X670202Y130490D01*
X677910D01*
Y138198D01*
D02*
G37*
G36*
X657510D02*
Y130490D01*
X665219D01*
X664901Y132086D01*
X662580Y135560D01*
X659107Y137880D01*
X657510Y138198D01*
D02*
G37*
G36*
X652510D02*
X650913Y137880D01*
X647440Y135560D01*
X645120Y132086D01*
X644802Y130490D01*
X652510D01*
Y138198D01*
D02*
G37*
G36*
X510510Y148090D02*
X489510D01*
Y127090D01*
X510510D01*
Y148090D01*
D02*
G37*
G36*
X690619Y125490D02*
X682910D01*
Y117781D01*
X684507Y118099D01*
X687980Y120420D01*
X690301Y123893D01*
X690619Y125490D01*
D02*
G37*
G36*
X677910D02*
X670202D01*
X670520Y123893D01*
X672840Y120420D01*
X676313Y118099D01*
X677910Y117781D01*
Y125490D01*
D02*
G37*
G36*
X665219D02*
X657510D01*
Y117781D01*
X659107Y118099D01*
X662580Y120420D01*
X664901Y123893D01*
X665219Y125490D01*
D02*
G37*
G36*
X652510D02*
X644802D01*
X645120Y123893D01*
X647440Y120420D01*
X650913Y118099D01*
X652510Y117781D01*
Y125490D01*
D02*
G37*
G36*
X683510Y105198D02*
Y97490D01*
X691219D01*
X690901Y99087D01*
X688580Y102560D01*
X685107Y104880D01*
X683510Y105198D01*
D02*
G37*
G36*
X678510D02*
X676914Y104880D01*
X673440Y102560D01*
X671120Y99087D01*
X670802Y97490D01*
X678510D01*
Y105198D01*
D02*
G37*
G36*
X658110D02*
Y97490D01*
X665819D01*
X665501Y99087D01*
X663180Y102560D01*
X659707Y104880D01*
X658110Y105198D01*
D02*
G37*
G36*
X653110D02*
X651514Y104880D01*
X648040Y102560D01*
X645720Y99087D01*
X645402Y97490D01*
X653110D01*
Y105198D01*
D02*
G37*
G36*
X691219Y92490D02*
X683510D01*
Y84781D01*
X685107Y85099D01*
X688580Y87420D01*
X690901Y90893D01*
X691219Y92490D01*
D02*
G37*
G36*
X678510D02*
X670802D01*
X671120Y90893D01*
X673440Y87420D01*
X676914Y85099D01*
X678510Y84781D01*
Y92490D01*
D02*
G37*
G36*
X665819D02*
X658110D01*
Y84781D01*
X659707Y85099D01*
X663180Y87420D01*
X665501Y90893D01*
X665819Y92490D01*
D02*
G37*
G36*
X653110D02*
X645402D01*
X645720Y90893D01*
X648040Y87420D01*
X651514Y85099D01*
X653110Y84781D01*
Y92490D01*
D02*
G37*
G36*
X617426Y108490D02*
X612510D01*
Y103740D01*
X616710D01*
Y103740D01*
X619101Y102742D01*
X619710Y99994D01*
Y84490D01*
X640710D01*
Y105490D01*
X620260D01*
Y105490D01*
X617870Y106487D01*
X617426Y108490D01*
D02*
G37*
G36*
X683307Y72206D02*
Y64497D01*
X691016D01*
X690698Y66094D01*
X688378Y69567D01*
X684904Y71888D01*
X683307Y72206D01*
D02*
G37*
G36*
X678307D02*
X676711Y71888D01*
X673237Y69567D01*
X670917Y66094D01*
X670599Y64497D01*
X678307D01*
Y72206D01*
D02*
G37*
G36*
X657907D02*
Y64497D01*
X665616D01*
X665298Y66094D01*
X662978Y69567D01*
X659504Y71888D01*
X657907Y72206D01*
D02*
G37*
G36*
X652907D02*
X651311Y71888D01*
X647837Y69567D01*
X645517Y66094D01*
X645199Y64497D01*
X652907D01*
Y72206D01*
D02*
G37*
G36*
X338513Y72477D02*
X317513D01*
Y51476D01*
X338513D01*
Y72477D01*
D02*
G37*
G36*
X302613Y72682D02*
X298516Y71867D01*
X295043Y69546D01*
X292722Y66073D01*
X291908Y61976D01*
X292722Y57880D01*
X295043Y54406D01*
X298516Y52086D01*
X302613Y51271D01*
X306710Y52086D01*
X310183Y54406D01*
X312504Y57880D01*
X313319Y61976D01*
X312504Y66073D01*
X310183Y69546D01*
X306710Y71867D01*
X302613Y72682D01*
D02*
G37*
G36*
X277213D02*
X273116Y71867D01*
X269643Y69546D01*
X267323Y66073D01*
X266508Y61976D01*
X267323Y57880D01*
X269643Y54406D01*
X273116Y52086D01*
X277213Y51271D01*
X281310Y52086D01*
X284783Y54406D01*
X287104Y57880D01*
X287919Y61976D01*
X287104Y66073D01*
X284783Y69546D01*
X281310Y71867D01*
X277213Y72682D01*
D02*
G37*
G36*
X251813D02*
X247716Y71867D01*
X244243Y69546D01*
X241922Y66073D01*
X241108Y61976D01*
X241922Y57880D01*
X244243Y54406D01*
X247716Y52086D01*
X251813Y51271D01*
X255910Y52086D01*
X259383Y54406D01*
X261704Y57880D01*
X262519Y61976D01*
X261704Y66073D01*
X259383Y69546D01*
X255910Y71867D01*
X251813Y72682D01*
D02*
G37*
G36*
X42500Y72956D02*
Y42500D01*
X72956D01*
X72151Y48615D01*
X68825Y56642D01*
X63536Y63536D01*
X56642Y68825D01*
X48615Y72151D01*
X42500Y72956D01*
D02*
G37*
G36*
X219010Y121989D02*
X202010D01*
Y97990D01*
X204393D01*
Y59990D01*
X202010D01*
Y39406D01*
X199010Y37802D01*
X198547Y38112D01*
X196010Y38617D01*
X193474Y38112D01*
X191324Y36676D01*
X189888Y34526D01*
X189383Y31990D01*
X189888Y29453D01*
X191324Y27303D01*
X193474Y25867D01*
X196010Y25362D01*
X198547Y25867D01*
X200697Y27303D01*
X201307Y28217D01*
X204713D01*
X205324Y27303D01*
X207474Y25867D01*
X210010Y25362D01*
X212547Y25867D01*
X214697Y27303D01*
X216133Y29453D01*
X216638Y31990D01*
X216439Y32989D01*
X218489Y35990D01*
X219010D01*
Y59990D01*
X216628D01*
Y97990D01*
X219010D01*
Y121989D01*
D02*
G37*
G36*
X616260Y27490D02*
X611510D01*
Y22740D01*
X616260D01*
Y27490D01*
D02*
G37*
G36*
X606510D02*
X601760D01*
Y22740D01*
X606510D01*
Y27490D01*
D02*
G37*
G36*
X690819Y26490D02*
X683110D01*
Y18781D01*
X684707Y19099D01*
X688180Y21419D01*
X690501Y24893D01*
X690819Y26490D01*
D02*
G37*
G36*
X678110D02*
X670402D01*
X670720Y24893D01*
X673040Y21419D01*
X676514Y19099D01*
X678110Y18781D01*
Y26490D01*
D02*
G37*
G36*
X665419D02*
X657710D01*
Y18781D01*
X659307Y19099D01*
X662780Y21419D01*
X665101Y24893D01*
X665419Y26490D01*
D02*
G37*
G36*
X652710D02*
X645002D01*
X645320Y24893D01*
X647640Y21419D01*
X651114Y19099D01*
X652710Y18781D01*
Y26490D01*
D02*
G37*
G36*
X338513Y39476D02*
X317513D01*
Y18477D01*
X338513D01*
Y39476D01*
D02*
G37*
G36*
X699010Y159646D02*
X696497Y159146D01*
X608010D01*
X604889Y158525D01*
X602243Y156757D01*
X591243Y145757D01*
X589475Y143111D01*
X588854Y139990D01*
Y57868D01*
X587743Y56757D01*
X585975Y54111D01*
X585354Y50990D01*
X585975Y47868D01*
X587743Y45222D01*
X593743Y39222D01*
X596389Y37454D01*
X599510Y36833D01*
X601760D01*
Y32490D01*
X616260D01*
Y36833D01*
X619310D01*
Y18490D01*
X640310D01*
Y36833D01*
X644215D01*
X645818Y33833D01*
X645320Y33087D01*
X645002Y31490D01*
X665419D01*
X665101Y33087D01*
X664602Y33833D01*
X666206Y36833D01*
X669615D01*
X671218Y33833D01*
X670720Y33087D01*
X670402Y31490D01*
X690819D01*
X690501Y33087D01*
X690002Y33833D01*
X691606Y36833D01*
X695027D01*
X696925Y34292D01*
X696120Y33087D01*
X695305Y28990D01*
X696120Y24893D01*
X698440Y21419D01*
X701914Y19099D01*
X706010Y18284D01*
X710107Y19099D01*
X713580Y21419D01*
X715901Y24893D01*
X716716Y28990D01*
X715901Y33087D01*
X714067Y35831D01*
Y39132D01*
Y54861D01*
X716098Y57901D01*
X716913Y61997D01*
X716098Y66094D01*
X714067Y69134D01*
Y87549D01*
X716301Y90893D01*
X717116Y94990D01*
X716301Y99087D01*
X714067Y102430D01*
Y121447D01*
X715701Y123893D01*
X716516Y127990D01*
X715701Y132086D01*
X713380Y135560D01*
X709907Y137880D01*
X705810Y138695D01*
X701713Y137880D01*
X698240Y135560D01*
X695920Y132086D01*
X695105Y127990D01*
X695920Y123893D01*
X697754Y121148D01*
Y100933D01*
X696520Y99087D01*
X695705Y94990D01*
X696520Y90893D01*
X697754Y89046D01*
Y68245D01*
X696317Y66094D01*
X695502Y61997D01*
X696317Y57901D01*
X697489Y56146D01*
X696662Y53146D01*
X691130D01*
X689526Y56146D01*
X690698Y57901D01*
X691016Y59497D01*
X670599D01*
X670917Y57901D01*
X672089Y56146D01*
X670485Y53146D01*
X665730D01*
X664126Y56146D01*
X665298Y57901D01*
X665616Y59497D01*
X645199D01*
X645517Y57901D01*
X646689Y56146D01*
X645085Y53146D01*
X640508D01*
Y72497D01*
X619507D01*
Y53146D01*
X606269D01*
X605167Y54490D01*
Y103740D01*
X607510D01*
Y110990D01*
X610010D01*
Y113490D01*
X617260D01*
Y115256D01*
X619110Y117490D01*
X620157Y117490D01*
X640110D01*
Y138490D01*
X619110D01*
Y134473D01*
X617260Y132240D01*
X616110Y132240D01*
X605167D01*
Y136611D01*
X611389Y142833D01*
X698510D01*
X701632Y143454D01*
X704278Y145222D01*
X704778Y145722D01*
X706546Y148368D01*
X707167Y151490D01*
X706546Y154611D01*
X704778Y157257D01*
X702132Y159025D01*
X699010Y159646D01*
D02*
G37*
G36*
X302613Y39682D02*
X298516Y38867D01*
X295043Y36547D01*
X292722Y33073D01*
X291908Y28977D01*
X292722Y24880D01*
X295043Y21407D01*
X298516Y19086D01*
X302613Y18271D01*
X306710Y19086D01*
X310183Y21407D01*
X312504Y24880D01*
X313319Y28977D01*
X312504Y33073D01*
X310183Y36547D01*
X306710Y38867D01*
X302613Y39682D01*
D02*
G37*
G36*
X277213D02*
X273116Y38867D01*
X269643Y36547D01*
X267323Y33073D01*
X266508Y28977D01*
X267323Y24880D01*
X269643Y21407D01*
X273116Y19086D01*
X277213Y18271D01*
X281310Y19086D01*
X284783Y21407D01*
X287104Y24880D01*
X287919Y28977D01*
X287104Y33073D01*
X284783Y36547D01*
X281310Y38867D01*
X277213Y39682D01*
D02*
G37*
G36*
X251813D02*
X247716Y38867D01*
X244243Y36547D01*
X241922Y33073D01*
X241108Y28977D01*
X241922Y24880D01*
X244243Y21407D01*
X247716Y19086D01*
X251813Y18271D01*
X255910Y19086D01*
X259383Y21407D01*
X261704Y24880D01*
X262519Y28977D01*
X261704Y33073D01*
X259383Y36547D01*
X255910Y38867D01*
X251813Y39682D01*
D02*
G37*
%LPD*%
G36*
X303514Y195508D02*
X304474Y194867D01*
X307010Y194362D01*
X309547Y194867D01*
X309883Y195091D01*
X312882Y193488D01*
Y186250D01*
X309500D01*
Y177000D01*
X307000D01*
Y174500D01*
X299000D01*
Y170970D01*
X296837Y169134D01*
X295387Y169166D01*
X295000Y169488D01*
Y186250D01*
X281285D01*
X280644Y186250D01*
X280048Y187365D01*
X279040Y189250D01*
X279159Y189428D01*
X279663Y191964D01*
X279164Y194476D01*
X279159Y194500D01*
X279674Y195574D01*
X280259Y195878D01*
X283349Y196299D01*
X284504Y195527D01*
X287040Y195023D01*
X289576Y195527D01*
X291726Y196964D01*
X291786Y197054D01*
X293784Y195719D01*
X296320Y195215D01*
X298856Y195719D01*
X301006Y197156D01*
X303514Y195508D01*
D02*
G37*
G36*
X457072Y105839D02*
X455160Y103509D01*
X453107Y104880D01*
X449010Y105695D01*
X445493Y104996D01*
X425255Y125234D01*
X423766Y126228D01*
X422010Y126578D01*
X359260D01*
Y127490D01*
X352010D01*
Y132490D01*
X359260D01*
Y133401D01*
X429510D01*
X457072Y105839D01*
D02*
G37*
%LPC*%
G36*
X304500Y186250D02*
X299000D01*
Y179500D01*
X304500D01*
Y186250D01*
D02*
G37*
%LPD*%
D41*
X609010Y29990D02*
D03*
Y43990D02*
D03*
X589010Y351990D02*
D03*
Y337990D02*
D03*
X610010Y124990D02*
D03*
Y110990D02*
D03*
X411000Y293000D02*
D03*
Y307000D02*
D03*
X227010Y193990D02*
D03*
Y207990D02*
D03*
D42*
X352010Y129990D02*
D03*
X338010D02*
D03*
X207262Y246990D02*
D03*
X193262D02*
D03*
X207262Y231990D02*
D03*
X193262D02*
D03*
X290010Y159990D02*
D03*
X276010D02*
D03*
X290010Y144990D02*
D03*
X276010D02*
D03*
X175010Y171989D02*
D03*
X189010D02*
D03*
X175010Y156990D02*
D03*
X189010D02*
D03*
X255010Y284989D02*
D03*
X269010D02*
D03*
X255010Y316989D02*
D03*
X269010D02*
D03*
D46*
X307000Y177000D02*
D03*
X287000D02*
D03*
D47*
X193007Y218002D02*
D03*
X212007D02*
D03*
X202507Y194002D02*
D03*
D63*
X238768Y200990D02*
X273010D01*
X273010Y191990D02*
X273036Y191964D01*
X254010Y191990D02*
X273010D01*
X268810Y230089D02*
X296320Y202579D01*
Y201842D02*
Y202579D01*
X286512Y201650D02*
X287040D01*
X243410Y244752D02*
X286512Y201650D01*
X194460Y148990D02*
X207460Y161990D01*
X244510D02*
X245010Y162489D01*
X207460Y161990D02*
X244510D01*
X266314Y124293D02*
Y163743D01*
X270311Y167740D01*
X261010Y118989D02*
X266314Y124293D01*
X270311Y167740D02*
X285243D01*
X245010Y125090D02*
Y144990D01*
X285243Y167740D02*
X287000Y169497D01*
Y177000D01*
X310010Y112990D02*
X310331D01*
X313010Y110310D01*
X116010Y147232D02*
X117768Y148990D01*
X194460D01*
X116010Y110490D02*
Y147232D01*
X343950Y188000D02*
X400653D01*
X402410Y189757D02*
Y234989D01*
X400653Y188000D02*
X402410Y189757D01*
X328000Y186000D02*
X341950D01*
X343950Y188000D01*
X346010Y182990D02*
X443810D01*
X328010Y164990D02*
X346010Y182990D01*
X307010Y200989D02*
Y201051D01*
X280010Y228051D02*
X307010Y201051D01*
X236010Y203747D02*
Y225919D01*
X220646Y255989D02*
X225910D01*
X227939Y233990D02*
X236010Y225919D01*
X237577Y231423D02*
X247010Y221989D01*
X237577Y231423D02*
Y244322D01*
X209646Y266990D02*
X220646Y255989D01*
X196010Y266990D02*
X209646D01*
X220261Y233990D02*
X227939D01*
X225910Y255989D02*
X237577Y244322D01*
X177010Y274990D02*
X206294D01*
X213452Y282147D01*
X243410Y244752D02*
Y280390D01*
X213452Y282147D02*
X241653D01*
X243410Y280390D01*
X312021Y149979D02*
X324010Y137990D01*
X431410D01*
X474410Y94990D01*
X441810Y152990D02*
X499810Y94990D01*
X321010Y152990D02*
X441810D01*
X443810Y182990D02*
X500010Y239190D01*
X422010Y121989D02*
X449010Y94990D01*
X323093Y121989D02*
X422010D01*
X319093Y117990D02*
X323093Y121989D01*
X318010Y117990D02*
X319093D01*
X313010Y110310D02*
X330010D01*
X336689Y116990D02*
X401610D01*
X330010Y110310D02*
X336689Y116990D01*
X401610D02*
X423610Y94990D01*
X381210Y111990D02*
X398210Y94990D01*
X340369Y111990D02*
X381210D01*
X333689Y105310D02*
X340369Y111990D01*
X300010Y111989D02*
X306689Y105310D01*
X333689D01*
X335440Y99990D02*
X342440Y106990D01*
X281010Y99990D02*
X335440D01*
X342440Y106990D02*
X360810D01*
X372810Y94990D01*
X270010Y110990D02*
X281010Y99990D01*
X275374Y94990D02*
X347410D01*
X262374Y107990D02*
X275374Y94990D01*
X262111Y107990D02*
X262374D01*
X245010Y125090D02*
X262111Y107990D01*
X268810Y230089D02*
Y284790D01*
X280010Y228051D02*
Y267190D01*
X268810Y284790D02*
X269010Y284989D01*
X234010Y171989D02*
X254010Y191990D01*
X280010Y267190D02*
X280810Y267990D01*
X236010Y203747D02*
X238768Y200990D01*
X207262Y246990D02*
X220261Y233990D01*
X115510Y109990D02*
X116010Y110490D01*
X189010Y171989D02*
X234010D01*
D64*
X282000Y193000D02*
X298000D01*
X389510Y293290D02*
X389612Y293188D01*
X410812D01*
X411000Y293000D01*
X637242Y355000D02*
X662000D01*
X601437Y343954D02*
X626196D01*
X637242Y355000D01*
X389510Y293290D02*
Y305989D01*
Y280590D02*
Y293290D01*
Y267889D02*
Y280590D01*
X333630Y293290D02*
X389510D01*
X211857Y218152D02*
X212007Y218002D01*
X211857Y218152D02*
Y227394D01*
X207262Y231990D02*
X211857Y227394D01*
D65*
X269510Y348489D02*
X311817D01*
X333630Y326676D01*
Y307990D02*
Y326676D01*
X98010Y33990D02*
Y87990D01*
X173000Y47479D02*
X173510Y47990D01*
X173000Y35000D02*
Y47479D01*
X167000Y29000D02*
X173000Y35000D01*
X103000Y29000D02*
X167000D01*
X98010Y33990D02*
X103000Y29000D01*
X98010Y142636D02*
X127010Y171637D01*
X98010Y87990D02*
Y142636D01*
X127010Y171637D02*
Y228990D01*
X255010Y333989D02*
X269510Y348489D01*
D66*
X352010Y129990D02*
X352021Y130000D01*
X364000D01*
X298000Y193000D02*
X307000Y184000D01*
X298000Y193000D02*
Y193000D01*
X307000Y177000D02*
Y184000D01*
X411000Y307000D02*
Y321400D01*
X398410Y333990D02*
X411000Y321400D01*
X307000Y169000D02*
Y177000D01*
X297990Y159990D02*
X307000Y169000D01*
X290010Y159990D02*
X297990D01*
X290010Y144990D02*
Y159990D01*
X565510Y29990D02*
X609010D01*
X544510Y50990D02*
X565510Y29990D01*
X306210Y267990D02*
X306260Y267939D01*
X398210Y334190D02*
X398410Y333990D01*
X411000Y307000D02*
X411200Y307200D01*
X290195Y284989D02*
X306208Y301002D01*
X269010Y284989D02*
X290195D01*
X269010Y316989D02*
X278880Y326859D01*
Y332459D01*
X280410Y333989D01*
X276010Y144990D02*
Y159990D01*
D67*
X255409Y267991D02*
Y301000D01*
X255010Y284989D02*
Y316989D01*
X319000Y234000D02*
X342010Y210989D01*
X304010Y248990D02*
X319000Y234000D01*
Y168979D02*
Y234000D01*
X303010Y152990D02*
X319000Y168979D01*
X255010Y316989D02*
Y333989D01*
Y316989D02*
X255010D01*
X202010D02*
X255010D01*
X202010Y316989D02*
X202010Y316989D01*
X279525Y130990D02*
X302725D01*
X276010Y134504D02*
Y144990D01*
Y134504D02*
X279525Y130990D01*
X302725D02*
X338010D01*
X302725D02*
X303010Y131275D01*
X289010Y248990D02*
X304010D01*
X255408Y301002D02*
X255409Y301000D01*
Y267991D02*
X255410Y267990D01*
X303010Y131275D02*
Y152990D01*
X280810Y267990D02*
X282533Y269712D01*
X300619Y281490D02*
X313096D01*
X313996Y280590D01*
X333630D01*
X288841Y269712D02*
X300619Y281490D01*
X282533Y269712D02*
X288841D01*
X306260Y267939D02*
X333580D01*
X255010Y333989D02*
X255010Y333989D01*
X193007Y218002D02*
Y246735D01*
X193262Y246990D01*
X226510Y208490D02*
X227010Y207990D01*
X226510Y208490D02*
Y225490D01*
X226010Y225990D02*
X226510Y225490D01*
X202507Y193996D02*
X227004D01*
X202507D02*
Y194002D01*
X227004Y193996D02*
X227010Y193990D01*
X210510Y47990D02*
Y109990D01*
Y47490D02*
Y47990D01*
X210010Y46989D02*
X210510Y47490D01*
X173510Y47990D02*
Y109990D01*
X152510Y47990D02*
Y109990D01*
X115510Y47990D02*
Y109990D01*
D68*
X614010Y316740D02*
Y317115D01*
X640010Y343115D01*
Y343490D01*
X220711Y245990D02*
X226010D01*
X218368Y248333D02*
X220711Y245990D01*
X218368Y248333D02*
Y250490D01*
X226010Y245990D02*
X226010Y245990D01*
X225199D02*
X226010D01*
X183260Y256240D02*
X212618D01*
X218368Y250490D01*
X156010Y228990D02*
X183260Y256240D01*
D69*
X546510Y52990D02*
Y124990D01*
X544510Y50990D02*
X546510Y52990D01*
D70*
X280413Y188027D02*
X295973D01*
X307000Y177000D01*
X213929Y128000D02*
X239929Y154000D01*
X213713Y128000D02*
X213929D01*
X260314Y159243D02*
Y167928D01*
X255071Y154000D02*
X260314Y159243D01*
Y167928D02*
X280413Y188027D01*
X239929Y154000D02*
X255071D01*
X575010Y321990D02*
X586081D01*
X589010Y337990D02*
X589010Y337990D01*
Y324919D02*
Y337990D01*
X586081Y321990D02*
X589010Y324919D01*
X500010Y333990D02*
X523010Y310990D01*
X550010D01*
X575010Y321990D02*
X575010Y321990D01*
X603410Y213990D02*
X616010Y226590D01*
X573010Y213990D02*
X603410D01*
D71*
X705910Y61997D02*
Y94990D01*
Y29090D02*
Y39132D01*
X599510Y44990D02*
X609010D01*
X608010Y150990D02*
X698510D01*
X699010Y151490D01*
X597010Y54490D02*
Y139990D01*
X609010Y44990D02*
X699196D01*
X597010Y139990D02*
X608010Y150990D01*
X705910Y39132D02*
Y61997D01*
Y94990D02*
Y127890D01*
Y29090D02*
X706010Y28990D01*
X705810Y127990D02*
X705910Y127890D01*
X593510Y50990D02*
X599510Y44990D01*
X699196D02*
X705054Y39132D01*
X593510Y50990D02*
X597010Y54490D01*
D73*
X500010Y188390D02*
D03*
Y162990D02*
D03*
Y213790D02*
D03*
Y239190D02*
D03*
Y264590D02*
D03*
Y289990D02*
D03*
X149010Y311990D02*
D03*
X255410Y267990D02*
D03*
X280810D02*
D03*
X306210D02*
D03*
X255408Y301002D02*
D03*
X280807D02*
D03*
X306208D02*
D03*
X255010Y333989D02*
D03*
X280410D02*
D03*
X305810D02*
D03*
X616010Y226590D02*
D03*
X655010Y127990D02*
D03*
X680410D02*
D03*
X705810D02*
D03*
X655210Y28990D02*
D03*
X680610D02*
D03*
X706010D02*
D03*
X655407Y61997D02*
D03*
X680807D02*
D03*
X706208D02*
D03*
X655610Y94990D02*
D03*
X681010D02*
D03*
X706410D02*
D03*
X402410Y234989D02*
D03*
X377010D02*
D03*
X351610D02*
D03*
X427810Y170990D02*
D03*
X402410D02*
D03*
X449010Y94990D02*
D03*
X474410D02*
D03*
X423610D02*
D03*
X398210D02*
D03*
X372810D02*
D03*
X347410D02*
D03*
X302613Y61976D02*
D03*
X277213D02*
D03*
X251813D02*
D03*
X302613Y28977D02*
D03*
X277213D02*
D03*
X251813D02*
D03*
X347610Y333990D02*
D03*
X373010D02*
D03*
X398410D02*
D03*
X423810D02*
D03*
X474610D02*
D03*
X449210D02*
D03*
D74*
X500010Y137590D02*
D03*
X253010Y95990D02*
D03*
X616010Y251990D02*
D03*
D75*
X40000Y40000D02*
D03*
Y330000D02*
D03*
D76*
X127010Y268990D02*
D03*
Y228990D02*
D03*
D77*
X174410Y311990D02*
D03*
X230010Y267990D02*
D03*
X230007Y301002D02*
D03*
X229610Y333989D02*
D03*
X629610Y127990D02*
D03*
X629810Y28990D02*
D03*
X630008Y61997D02*
D03*
X630210Y94990D02*
D03*
X427810Y234989D02*
D03*
X377010Y170990D02*
D03*
X499810Y94990D02*
D03*
X328013Y61976D02*
D03*
Y28977D02*
D03*
X500010Y333990D02*
D03*
D78*
X713500Y324000D02*
D03*
Y270000D02*
D03*
Y216000D02*
D03*
X673000Y351000D02*
D03*
Y81000D02*
D03*
X646000D02*
D03*
X592000Y27000D02*
D03*
X565000Y81000D02*
D03*
Y27000D02*
D03*
X538000Y351000D02*
D03*
X551500Y270000D02*
D03*
Y162000D02*
D03*
X538000Y81000D02*
D03*
Y27000D02*
D03*
X511000Y351000D02*
D03*
X524500Y270000D02*
D03*
Y216000D02*
D03*
X511000Y81000D02*
D03*
Y27000D02*
D03*
X484000Y351000D02*
D03*
Y297000D02*
D03*
Y135000D02*
D03*
X497500Y54000D02*
D03*
X484000Y27000D02*
D03*
X457000Y351000D02*
D03*
Y297000D02*
D03*
X470500Y270000D02*
D03*
X457000Y243000D02*
D03*
X470500Y54000D02*
D03*
X457000Y27000D02*
D03*
X430000Y351000D02*
D03*
Y297000D02*
D03*
X443500Y270000D02*
D03*
Y54000D02*
D03*
X430000Y27000D02*
D03*
X403000Y351000D02*
D03*
X416500Y270000D02*
D03*
Y216000D02*
D03*
Y54000D02*
D03*
X403000Y27000D02*
D03*
X376000Y351000D02*
D03*
X389500Y216000D02*
D03*
Y54000D02*
D03*
X376000Y27000D02*
D03*
X349000Y351000D02*
D03*
X362500Y324000D02*
D03*
Y54000D02*
D03*
X349000Y27000D02*
D03*
X322000Y81000D02*
D03*
X241000Y351000D02*
D03*
X214000D02*
D03*
X187000D02*
D03*
Y189000D02*
D03*
X160000Y351000D02*
D03*
X173500Y216000D02*
D03*
X160000Y135000D02*
D03*
X133000Y351000D02*
D03*
Y297000D02*
D03*
X106000Y351000D02*
D03*
X119500Y324000D02*
D03*
X106000Y297000D02*
D03*
Y189000D02*
D03*
X79000Y351000D02*
D03*
X92500Y324000D02*
D03*
X79000Y297000D02*
D03*
Y243000D02*
D03*
X92500Y216000D02*
D03*
X79000Y189000D02*
D03*
Y27000D02*
D03*
X65500Y270000D02*
D03*
X52000Y243000D02*
D03*
X65500Y216000D02*
D03*
X52000Y189000D02*
D03*
X65500Y162000D02*
D03*
X52000Y135000D02*
D03*
X65500Y108000D02*
D03*
X52000Y81000D02*
D03*
X38500Y270000D02*
D03*
X25000Y243000D02*
D03*
X38500Y216000D02*
D03*
X25000Y189000D02*
D03*
X38500Y162000D02*
D03*
X25000Y135000D02*
D03*
X38500Y108000D02*
D03*
X25000Y81000D02*
D03*
X364000Y130000D02*
D03*
X273010Y200990D02*
D03*
X273036Y191964D02*
D03*
X296320Y201842D02*
D03*
X287040Y201650D02*
D03*
X282000Y193000D02*
D03*
X662000Y355000D02*
D03*
X213713Y128000D02*
D03*
X245010Y162489D02*
D03*
Y144990D02*
D03*
X307000Y177000D02*
D03*
X290010Y159990D02*
D03*
Y144990D02*
D03*
X544510Y50990D02*
D03*
X546510Y124990D02*
D03*
X310010Y112990D02*
D03*
X318010Y117990D02*
D03*
X328000Y186000D02*
D03*
X328010Y164990D02*
D03*
X307010Y200989D02*
D03*
X287000Y177000D02*
D03*
X601437Y343954D02*
D03*
X589010Y351990D02*
D03*
X640010Y343490D02*
D03*
X614010Y316740D02*
D03*
X550010Y310990D02*
D03*
X196010Y266990D02*
D03*
X202010Y316989D02*
D03*
X156010Y228990D02*
D03*
X226010Y245990D02*
D03*
X289010Y248990D02*
D03*
X98010Y87990D02*
D03*
X196010Y31990D02*
D03*
X173510Y47990D02*
D03*
X312021Y149979D02*
D03*
X321010Y152990D02*
D03*
X300010Y111989D02*
D03*
X270010Y110990D02*
D03*
X177010Y274990D02*
D03*
X247010Y221989D02*
D03*
X575010Y321990D02*
D03*
X610010Y124990D02*
D03*
X593510Y50990D02*
D03*
X699010Y151490D02*
D03*
X210010Y31990D02*
D03*
X226010Y225990D02*
D03*
X189010Y156990D02*
D03*
X189010Y171989D02*
D03*
X115510Y47990D02*
D03*
X210010Y46989D02*
D03*
X152510Y109990D02*
D03*
X261010Y118989D02*
D03*
X276010Y144990D02*
D03*
Y159990D02*
D03*
X338010Y130990D02*
D03*
X342010Y210989D02*
D03*
X262010Y214989D02*
D03*
X593010Y238990D02*
D03*
X581010D02*
D03*
X569010D02*
D03*
X573010Y213990D02*
D03*
D79*
X389510Y305989D02*
D03*
D80*
Y293290D02*
D03*
Y280590D02*
D03*
Y267889D02*
D03*
X333630D02*
D03*
Y280590D02*
D03*
Y293290D02*
D03*
Y305989D02*
D03*
D81*
X115510Y109990D02*
D03*
Y47990D02*
D03*
X152510Y109990D02*
D03*
Y47990D02*
D03*
X173510Y109990D02*
D03*
Y47990D02*
D03*
X210510Y109990D02*
D03*
Y47990D02*
D03*
M02*
