M48
;Layer_Color=9474304
;FILE_FORMAT=4:4
METRIC,LZ
;TYPE=PLATED
T1F00S00C0.3000
T2F00S00C0.9000
T3F00S00C1.0000
T4F00S00C4.0000
%
T01
X00403Y00027
X0043
X00457
X00484
X00511
X00538
X00565
X00592
X0059351Y0005099
X0054451
X00538Y00081
X00565
X00511
X004975Y00054
X004705
X004435
X004165
X00484Y00135
X0054651Y0012499
X005515Y00162
X0057301Y0021399
X0056901Y0023899
X0058101
X0059301
X005515Y0027
X005245
Y00216
X00457Y00243
X004705Y0027
X004435
X004165
X0043Y00297
X00457
X00484
X0055001Y0031099
X0057501Y0032199
X0061401Y0031674
X00601437Y00343954
X0064001Y0034349
X007135Y00324
Y0027
Y00216
X0069901Y0015149
X00673Y00081
X00646
X0061001Y0012499
X004165Y00216
X003895
X0034201Y00210989
X00328Y00186
X0032801Y0016499
X0032101Y0015299
X00312021Y00149979
X0029001Y0014499
X0027601
Y0015999
X0029001
X00287Y00177
X00307
X0030701Y00200989
X0029632Y00201842
X0028704Y0020165
X00282Y00193
X00273036Y00191964
X0027301Y0020099
X0026201Y00214989
X0024701Y00221989
X0022601Y0022599
Y0024599
X0019601Y0026699
X0017701Y0027499
X001735Y00216
X0015601Y0022899
X00187Y00189
X0018901Y00171989
X0018901Y0015699
X0016Y00135
X0015251Y0010999
X0009801Y0008799
X000655Y00108
X000385
X00052Y00135
X00025
X000385Y00162
X000655
X00079Y00189
X00106
X000925Y00216
X000655
X000385
X00052Y00243
X00079
X000655Y0027
X000385
X00025Y00243
Y00189
X00052
Y00081
X00025
X00079Y00027
X0011551Y0004799
X0017351
X0021001Y00046989
Y0003199
X0019601
X00213713Y00128
X0024501Y0014499
Y00162489
X0026101Y00118989
X0027001Y0011099
X0030001Y00111989
X0031001Y0011299
X0031801Y0011799
X0033801Y0013099
X00364Y0013
X003625Y00054
X003895
X00376Y00027
X00349
X00322Y00081
X0028901Y0024899
X003625Y00324
X0020201Y00316989
X00133Y00297
X00106
X00079
X000925Y00324
X001195
X00133Y00351
X0016
X00187
X00214
X00241
X00349
X00376
X00106
X00079
X00403
X0043
X00457
X00484
X00511
X00538
X0058901Y0035199
X00662Y00355
X00673Y00351
T02
X0039821Y0009499
X0042361
X0044901
X0047441
X0049981
X0050001Y0013759
Y0016299
Y0018839
Y0021379
Y0023919
Y0026459
Y0028999
Y0033399
X0047461
X0044921
X0042381
X0039841
X0040241Y00234989
X0042781
Y0017099
X0040241
X0061601Y0022659
Y0025199
X0062961Y0012799
X0065501
X0068041
X0070581
X0070641Y0009499
X0068101
X0065561
X0063021
X00630008Y00061997
X00655407
X00680807
X00706208
X0070601Y0002899
X0068061
X0065521
X0062981
X00328013Y00028977
X00302613
X00277213
X00251813
Y00061976
X00277213
X00302613
X00328013
X0034741Y0009499
X0037281
X0037701Y0017099
Y00234989
X0035161
X0030621Y0026799
X0028081
X0025541
X0023001
X00230007Y00301002
X00255408
X00280807
X00306208
X0030581Y00333989
X0028041
X0025501
X0022961
X0017441Y0031199
X0014901
X0034761Y0033399
X0037301
X0025301Y0009599
T03
X0012701Y0022899
Y0026899
T04
X0004Y0004
Y0033
M30
